REM MD5 1605220a6d43c36f10edc10ba761f8ed
FILE "Euro Demo 04 (Europe).bin" BINARY
  TRACK 01 MODE2/2352
    INDEX 01 00:00:00
  TRACK 02 AUDIO
    INDEX 00 18:11:41
    INDEX 01 18:13:41
  TRACK 03 AUDIO
    INDEX 00 21:19:39
    INDEX 01 21:21:39
  TRACK 04 AUDIO
    INDEX 00 24:17:43
    INDEX 01 24:19:43
REM LEADOUT 27:25:41
